<svg width="135" height="24" viewBox="0 0 135 24" fill="none" xmlns="http://www.w3.org/2000/svg">
<path d="M36.596 16L34.532 13.072C35.72 12.7 36.524 11.74 36.524 10.492C36.524 8.884 35.204 7.756 33.44 7.756H29.852V16H31.352V13.228H32.948L34.892 16H36.596ZM31.352 9.136H33.272C34.292 9.136 35 9.652 35 10.492C35 11.332 34.292 11.848 33.272 11.848H31.352V9.136ZM40.7233 14.848C39.8353 14.848 39.1873 14.248 39.0073 13.396H43.6873C43.6873 11.104 42.5713 9.652 40.6513 9.652C38.8873 9.652 37.4953 11.02 37.4953 12.88C37.4953 14.788 38.9593 16.144 40.7353 16.144C41.6353 16.144 42.7153 15.76 43.2553 15.184L42.3313 14.224C41.9833 14.584 41.2993 14.848 40.7233 14.848ZM40.7113 10.948C41.5873 10.948 42.1153 11.5 42.2833 12.28H39.0193C39.2353 11.464 39.8953 10.948 40.7113 10.948ZM46.8283 9.28C46.8283 8.86 47.0923 8.56 47.4403 8.56C47.6923 8.56 47.9203 8.656 48.0523 8.788L48.4723 7.852C48.1243 7.552 47.6203 7.36 47.1523 7.36C46.1203 7.36 45.4003 8.104 45.4003 9.148V9.796H44.5003V11.008H45.4003V16H46.8283V11.008H48.2323V9.796H46.8283V9.28ZM52.2898 14.848C51.4018 14.848 50.7538 14.248 50.5738 13.396H55.2538C55.2538 11.104 54.1378 9.652 52.2178 9.652C50.4538 9.652 49.0618 11.02 49.0618 12.88C49.0618 14.788 50.5258 16.144 52.3018 16.144C53.2018 16.144 54.2818 15.76 54.8218 15.184L53.8978 14.224C53.5498 14.584 52.8658 14.848 52.2898 14.848ZM52.2778 10.948C53.1538 10.948 53.6818 11.5 53.8498 12.28H50.5858C50.8018 11.464 51.4618 10.948 52.2778 10.948ZM58.0228 10.996V9.796H56.5588V16H58.0228V12.868C58.0228 11.692 58.9108 10.9 60.2428 10.9V9.652C59.2228 9.652 58.4188 10.168 58.0228 10.996ZM71.6499 15.592C71.1579 15.076 70.7139 14.62 70.3299 14.212C70.7379 13.648 71.1099 12.988 71.4699 12.256L70.3539 11.728C70.1259 12.316 69.8379 12.868 69.5139 13.348C68.9259 12.724 68.4699 12.22 68.0499 11.728C69.2979 11.164 69.9579 10.648 69.9579 9.688C69.9579 8.548 69.0339 7.66 67.7619 7.66C66.4779 7.66 65.5059 8.572 65.5059 9.7C65.5059 10.312 65.6739 10.78 66.1299 11.416C64.8699 11.992 64.3179 12.7 64.3179 13.768C64.3179 15.256 65.4699 16.144 67.0299 16.144C67.9899 16.144 68.7819 15.796 69.4659 15.184L70.4019 16.156L71.6499 15.592ZM67.7859 8.752C68.2899 8.752 68.6619 9.16 68.6619 9.7C68.6619 10.288 68.2899 10.564 67.3779 10.936C66.9939 10.468 66.8139 10.108 66.8139 9.7C66.8139 9.124 67.2339 8.752 67.7859 8.752ZM67.1739 14.98C66.4179 14.98 65.7699 14.5 65.7699 13.696C65.7699 13.108 66.1179 12.664 66.8019 12.292C67.2699 12.844 67.8459 13.492 68.6619 14.344C68.1939 14.74 67.7019 14.98 67.1739 14.98ZM82.4857 9.124V7.756H76.2817V16H82.4857V14.632H77.7817V12.484H82.0417V11.116H77.7817V9.124H82.4857ZM86.5743 9.652C85.7943 9.652 84.9783 9.868 84.1023 10.3L84.6063 11.32C85.1343 11.056 85.6983 10.852 86.2863 10.852C87.4143 10.852 87.8103 11.548 87.8103 12.268V12.436C87.2463 12.22 86.6343 12.1 86.0703 12.1C84.6783 12.1 83.5383 12.94 83.5383 14.164C83.5383 15.364 84.5343 16.144 85.8543 16.144C86.5743 16.144 87.3543 15.832 87.8103 15.256V16H89.2383V12.268C89.2383 10.696 88.2183 9.652 86.5743 9.652ZM86.1783 15.076C85.4823 15.076 84.9663 14.704 84.9663 14.116C84.9663 13.528 85.5543 13.12 86.2863 13.12C86.8383 13.12 87.3543 13.204 87.8103 13.36V14.056C87.6423 14.716 86.8863 15.076 86.1783 15.076ZM92.3235 10.996V9.796H90.8595V16H92.3235V12.868C92.3235 11.692 93.2115 10.9 94.5435 10.9V9.652C93.5235 9.652 92.7195 10.168 92.3235 10.996ZM99.0122 9.652C98.1962 9.652 97.4762 10.048 97.0922 10.624V9.796H95.6282V16H97.0922V12.076C97.1882 11.416 97.8242 10.9 98.5922 10.9C99.3602 10.9 99.9002 11.5 99.9002 12.34V16H101.316V12.052C101.316 10.648 100.368 9.652 99.0122 9.652ZM111.541 9.5957L111.248 10.6797H105.74L106.039 9.5957H111.541ZM108.799 16L105.91 12.5898L105.904 11.6523H107.299C107.639 11.6523 107.918 11.5898 108.137 11.4648C108.359 11.3359 108.525 11.1621 108.635 10.9434C108.748 10.7246 108.805 10.4785 108.805 10.2051C108.805 9.91992 108.754 9.66797 108.652 9.44922C108.551 9.22656 108.389 9.05273 108.166 8.92773C107.943 8.80273 107.648 8.74023 107.281 8.74023H105.746L106.08 7.46875H107.281C107.977 7.46875 108.555 7.57422 109.016 7.78516C109.48 7.99219 109.828 8.29492 110.059 8.69336C110.293 9.08789 110.41 9.56445 110.41 10.123C110.41 10.6113 110.328 11.043 110.164 11.418C110.004 11.7891 109.744 12.0918 109.385 12.3262C109.025 12.5605 108.553 12.7168 107.967 12.7949L110.586 15.918V16H108.799ZM111.547 7.46875L111.248 8.55273H106.719L107.018 7.46875H111.547ZM112.333 16H118.393V14.632H114.661L116.389 13.24C117.805 12.148 118.309 11.272 118.309 10.18C118.309 8.656 117.061 7.612 115.429 7.612C114.097 7.612 113.101 8.2 112.321 9.22L113.293 10.12C113.893 9.4 114.517 8.956 115.381 8.956C116.125 8.956 116.785 9.436 116.785 10.216C116.785 10.888 116.413 11.512 115.369 12.352L112.333 14.776V16ZM122.623 16.144C124.507 16.144 125.791 15.04 125.791 13.336C125.791 11.68 124.531 10.744 123.067 10.744C122.359 10.744 121.819 10.96 121.399 11.248L121.471 9.124H125.347V7.756H120.067L119.947 12.136L120.967 12.568C121.435 12.208 121.999 11.992 122.647 11.992C123.631 11.992 124.291 12.556 124.291 13.396C124.291 14.2 123.655 14.848 122.647 14.848C121.819 14.848 121.063 14.428 120.427 13.804L119.539 14.872C120.271 15.64 121.279 16.144 122.623 16.144ZM130.571 16.144C132.683 16.144 134.171 14.38 134.171 11.872C134.171 9.376 132.683 7.612 130.571 7.612C128.447 7.612 126.947 9.376 126.947 11.872C126.947 14.38 128.447 16.144 130.571 16.144ZM130.571 14.776C129.347 14.776 128.483 13.576 128.483 11.872C128.483 10.168 129.347 8.98 130.571 8.98C131.783 8.98 132.647 10.168 132.647 11.872C132.647 13.576 131.783 14.776 130.571 14.776Z" fill="black"/>
<path d="M21 4H18V3C18 2.73478 17.8946 2.48043 17.7071 2.29289C17.5196 2.10536 17.2652 2 17 2H7C6.73478 2 6.48043 2.10536 6.29289 2.29289C6.10536 2.48043 6 2.73478 6 3V4H3C2.73478 4 2.48043 4.10536 2.29289 4.29289C2.10536 4.48043 2 4.73478 2 5V8C2 9.06087 2.42143 10.0783 3.17157 10.8284C3.92172 11.5786 4.93913 12 6 12H7.54C8.44453 13.0091 9.66406 13.6824 11 13.91V16H10C9.20435 16 8.44129 16.3161 7.87868 16.8787C7.31607 17.4413 7 18.2044 7 19V21C7 21.2652 7.10536 21.5196 7.29289 21.7071C7.48043 21.8946 7.73478 22 8 22H16C16.2652 22 16.5196 21.8946 16.7071 21.7071C16.8946 21.5196 17 21.2652 17 21V19C17 18.2044 16.6839 17.4413 16.1213 16.8787C15.5587 16.3161 14.7956 16 14 16H13V13.91C14.3359 13.6824 15.5555 13.0091 16.46 12H18C19.0609 12 20.0783 11.5786 20.8284 10.8284C21.5786 10.0783 22 9.06087 22 8V5C22 4.73478 21.8946 4.48043 21.7071 4.29289C21.5196 4.10536 21.2652 4 21 4ZM6 10C5.46957 10 4.96086 9.78929 4.58579 9.41421C4.21071 9.03914 4 8.53043 4 8V6H6V8C6.0022 8.68171 6.12056 9.35806 6.35 10H6ZM14 18C14.2652 18 14.5196 18.1054 14.7071 18.2929C14.8946 18.4804 15 18.7348 15 19V20H9V19C9 18.7348 9.10536 18.4804 9.29289 18.2929C9.48043 18.1054 9.73478 18 10 18H14ZM16 8C16 9.06087 15.5786 10.0783 14.8284 10.8284C14.0783 11.5786 13.0609 12 12 12C10.9391 12 9.92172 11.5786 9.17157 10.8284C8.42143 10.0783 8 9.06087 8 8V4H16V8ZM20 8C20 8.53043 19.7893 9.03914 19.4142 9.41421C19.0391 9.78929 18.5304 10 18 10H17.65C17.8794 9.35806 17.9978 8.68171 18 8V6H20V8Z" fill="black"/>
</svg>
